<svg xmlns="http://www.w3.org/2000/svg" width="19.289" height="20.914" viewBox="0 0 19.289 20.914">
    <g id="prefix__surface1" transform="rotate(-14.98 2.612 25.161)">
        <path id="prefix__Path_28" d="M16.874 4a3.931 3.931 0 0 0-2.792 1.167l-6.866 6.866a5.583 5.583 0 1 0 7.9 7.9l4.577-4.577-1.03-1.03-4.582 4.574a4.127 4.127 0 0 1-5.836-5.836L15.111 6.2a2.508 2.508 0 0 1 3.547 3.547l-6.865 6.863a.89.89 0 1 1-1.259-1.259l6.294-6.294L15.8 8.028l-6.3 6.293a2.346 2.346 0 0 0 3.318 3.318l6.866-6.866A3.971 3.971 0 0 0 16.874 4z" data-name="Path 28" style="fill:#808b98"/>
    </g>
</svg>
