<svg xmlns="http://www.w3.org/2000/svg" id="prefix__instagram-line" width="24" height="24" viewBox="0 0 24 24">
    <path id="prefix__Path_15" d="M0 0h24v24H0z" data-name="Path 15" style="fill:none"/>
    <path id="prefix__Path_16" d="M12 9a3 3 0 1 0 3 3 3 3 0 0 0-3-3zm0-2a5 5 0 1 1-5 5 5 5 0 0 1 5-5zm6.5-.25a1.25 1.25 0 1 1-1.25-1.25 1.25 1.25 0 0 1 1.25 1.25zM12 4c-2.474 0-2.878.007-4.029.058a5.433 5.433 0 0 0-1.8.332 2.886 2.886 0 0 0-1.08.7 2.89 2.89 0 0 0-.7 1.08 5.425 5.425 0 0 0-.331 1.8C4.006 9.075 4 9.461 4 12c0 2.474.007 2.878.058 4.029a5.454 5.454 0 0 0 .331 1.8 3.109 3.109 0 0 0 1.782 1.783 5.444 5.444 0 0 0 1.8.333c1.1.052 1.49.058 4.029.058 2.474 0 2.878-.007 4.029-.058a5.465 5.465 0 0 0 1.8-.331 2.921 2.921 0 0 0 1.08-.7 2.891 2.891 0 0 0 .7-1.08 5.467 5.467 0 0 0 .332-1.8c.052-1.1.058-1.49.058-4.029 0-2.474-.007-2.878-.058-4.029a5.443 5.443 0 0 0-.332-1.8 2.911 2.911 0 0 0-.7-1.08 2.884 2.884 0 0 0-1.08-.7 5.43 5.43 0 0 0-1.8-.331C14.925 4.006 14.539 4 12 4zm0-2c2.717 0 3.056.01 4.122.06a7.367 7.367 0 0 1 2.428.465 4.876 4.876 0 0 1 1.772 1.153 4.908 4.908 0 0 1 1.153 1.772 7.387 7.387 0 0 1 .465 2.428C21.987 8.944 22 9.283 22 12s-.01 3.056-.06 4.122a7.393 7.393 0 0 1-.465 2.428 5.106 5.106 0 0 1-2.925 2.925 7.387 7.387 0 0 1-2.428.465c-1.066.047-1.4.06-4.122.06s-3.056-.01-4.122-.06a7.393 7.393 0 0 1-2.428-.465 5.106 5.106 0 0 1-2.925-2.925 7.361 7.361 0 0 1-.465-2.428C2.013 15.056 2 14.717 2 12s.01-3.056.06-4.122a7.361 7.361 0 0 1 .465-2.428 4.88 4.88 0 0 1 1.153-1.772A4.9 4.9 0 0 1 5.45 2.525a7.361 7.361 0 0 1 2.428-.465C8.944 2.013 9.283 2 12 2z" data-name="Path 16" style="fill:#ff9c7c"/>
</svg>
