<svg xmlns="http://www.w3.org/2000/svg" id="prefix__twitter-line" width="24" height="24" viewBox="0 0 24 24">
    <path id="prefix__Path_23" d="M0 0h24v24H0z" data-name="Path 23" style="fill:none"/>
    <path id="prefix__Path_24" d="M15.3 5.55a2.9 2.9 0 0 0-2.9 2.85l-.028 1.575a.6.6 0 0 1-.68.583l-1.561-.212a11.708 11.708 0 0 1-5.91-2.8c-.6 3.31.57 5.6 3.383 7.372l1.747 1.1a.6.6 0 0 1 .034.993L7.793 18.17a10.362 10.362 0 0 0 2.592-.131C15.1 17.1 18.24 13.547 18.24 7.691A3.021 3.021 0 0 0 15.3 5.55zm-4.9 2.81a4.9 4.9 0 0 1 8.385-3.355 3.856 3.856 0 0 0 2.669-.645 7.227 7.227 0 0 1-1.214 3.331c0 7.642-4.7 11.358-9.463 12.309-3.268.652-8.02-.419-9.382-1.841a11.546 11.546 0 0 0 5.144-1.55C5.16 15.7-.329 12.47 3.278 3.786a14.046 14.046 0 0 0 5.15 4.037 5.877 5.877 0 0 0 1.973.538z" data-name="Path 24" style="fill:#5fa8ff"/>
</svg>
